<svg xmlns="http://www.w3.org/2000/svg" width="100" height="100" viewBox="0 0 100 100" fill="none"><rect width="100" height="100" rx="20" fill="#6E5AA8"/><path d="M45.2185 73V61.0861C42.0501 61.0861 39.2941 60.652 36.9503 59.784C34.6066 58.8726 32.6535 57.6139 31.091 56.008C29.572 54.3587 28.4218 52.4056 27.6406 50.1487C26.9027 47.8484 26.5338 45.3093 26.5338 42.5316V26.5161H35.7785V43.0524C35.7785 45.5697 36.1474 47.5663 36.8852 49.0419C37.6665 50.5176 38.7732 51.581 40.2055 52.232C41.6378 52.8396 43.3088 53.1434 45.2185 53.1434V26.5161H54.0726V53.1434C55.7652 53.1434 57.3277 52.8396 58.76 52.232C60.1923 51.6244 61.3424 51.6244 62. ..."/></svg>