<svg width="100" height="100" viewBox="0 0 100 100" fill="none" xmlns="http://www.w3.org/2000/svg">
<rect width="100" height="100" rx="20" fill="#6E5AA8"/>
<path d="M45.2185 73V61.0861C42.0501 61.0861 39.2941 60.652 36.9503 59.784C34.6066 58.8726 32.6535 57.6139 31.091 56.008C29.572 54.3587 28.4218 52.4056 27.6406 50.1487C26.9027 47.8484 26.5338 45.3093 26.5338 42.5316V26.5161H35.7785V43.0524C35.7785 45.5697 36.1474 47.5663 36.8852 49.0419C37.6665 50.5176 38.7732 51.581 40.2055 52.232C41.6378 52.8396 43.3088 53.1434 45.2185 53.1434V26.5161H54.0726V53.1434C55.7652 53.1434 57.3277 52.8396 58.76 52.232C60.1923 51.6244 61.3424 50.6044 62.2105 49.1721C63.0785 47.6965 63.5126 45.7 63.5126 43.1826V26.5161H72.7572V42.4014C72.7572 46.2208 72.0411 49.5411 70.6088 52.3622C69.22 55.14 67.1366 57.2884 64.3589 58.8074C61.5812 60.3265 58.1524 61.0861 54.0726 61.0861V73H45.2185Z" fill="white"/>
</svg>
